<?xml version="1.0" encoding="UTF-8"?>
<svg version="1.1" xmlns="http://www.w3.org/2000/svg" width="391" height="391">
<path d="M0 0 C0.90709717 0.35022217 0.90709717 0.35022217 1.83251953 0.70751953 C29.98348064 11.66295202 29.98348064 11.66295202 40 22 C41.73585329 23.43396576 43.48693682 24.8496241 45.25 26.25 C50.15918252 30.22846968 54.62535017 34.44997446 59 39 C59.680625 39.67417969 60.36125 40.34835938 61.0625 41.04296875 C71 51.08064516 71 51.08064516 71 55 C71.66 55 72.32 55 73 55 C73.2475 55.5775 73.495 56.155 73.75 56.75 C74.91727158 59.10720859 74.91727158 59.10720859 77 60.9375 C79.18982677 63.19575885 79.92440424 65.0805258 81 68 C81.66 68.66 82.32 69.32 83 70 C83.309375 70.804375 83.61875 71.60875 83.9375 72.4375 C84.81413455 75.0132761 84.81413455 75.0132761 86.5625 76.5625 C88.31042677 78.31042677 88.46462769 79.6290655 89 82 C89.66 82.66 90.32 83.32 91 84 C94.99245487 94.31543365 96.00930958 106.14972828 94 117 C93.8453125 118.11375 93.8453125 118.11375 93.6875 119.25 C92.70794056 121.74342402 90.90385769 123.15755707 89 125 C89 125.66 89 126.32 89 127 C87.38102985 128.76614925 85.75757633 130.38036004 84 132 C83.48050781 132.48984375 82.96101562 132.9796875 82.42578125 133.484375 C73.24585946 141.78696161 61.39286109 147.21315168 49 148 C48.20851563 148.0515625 47.41703125 148.103125 46.6015625 148.15625 C40.46001667 148.38301477 35.70295481 147.16123883 30 145 C27.32891902 144.04452419 27.32891902 144.04452419 25 144 C22.90336809 145.34329588 22.90336809 145.34329588 21 147 C18.20674577 147.89229433 15.6596869 148.12997004 12.73803711 148.14526367 C11.90715073 148.15164352 11.07626434 148.15802338 10.22019958 148.16459656 C9.33155716 148.16570938 8.44291473 148.1668222 7.52734375 148.16796875 C6.60788467 148.17129715 5.6884256 148.17462555 4.74110413 148.17805481 C2.80030822 148.18311087 0.85950365 148.18546354 -1.08129883 148.18530273 C-4.05499469 148.18749447 -7.02832261 148.20567845 -10.00195312 148.22460938 C-11.88801956 148.22754248 -13.77408777 148.22952783 -15.66015625 148.23046875 C-16.55082291 148.23765427 -17.44148956 148.24483978 -18.35914612 148.25224304 C-19.18688034 148.24916641 -20.01461456 148.24608978 -20.86743164 148.24291992 C-21.59483047 148.24434494 -22.32222931 148.24576996 -23.07167053 148.24723816 C-25 148 -25 148 -28 146 C-27.67 144.35 -27.34 142.7 -27 141 C-27.598125 141.78375 -28.19625 142.5675 -28.8125 143.375 C-31 146 -31 146 -34 148 C-36.26171875 148.1953125 -36.26171875 148.1953125 -38.6875 148.125 C-39.49574219 148.10695313 -40.30398437 148.08890625 -41.13671875 148.0703125 C-41.75160156 148.04710937 -42.36648437 148.02390625 -43 148 C-43.28746094 148.6084375 -43.57492188 149.216875 -43.87109375 149.84375 C-45 152 -45 152 -47.0625 154.5 C-48.93879899 156.92103096 -49.33127323 158.13402813 -50 161 C-50.47953125 161.42667969 -50.9590625 161.85335937 -51.453125 162.29296875 C-53.46288817 164.51081345 -53.69315823 166.25947566 -54.1875 169.1875 C-54.42533203 170.53908203 -54.42533203 170.53908203 -54.66796875 171.91796875 C-54.77753906 172.60503906 -54.88710937 173.29210937 -55 174 C-55.66 174 -56.32 174 -57 174 C-57.19335938 174.60328125 -57.38671875 175.2065625 -57.5859375 175.828125 C-57.97652344 177.02695312 -57.97652344 177.02695312 -58.375 178.25 C-58.75785156 179.43335938 -58.75785156 179.43335938 -59.1484375 180.640625 C-59.95173667 182.86627958 -60.89711662 184.90931672 -62 187 C-62.66 187 -63.32 187 -64 187 C-64.33 187.66 -64.66 188.32 -65 189 C-78.41932464 197.01673939 -91.49829865 198.95205851 -106.875 195.8125 C-112.33244704 194.39025623 -116.5768049 192.4814826 -121 189 C-121.63035156 188.50757813 -122.26070312 188.01515625 -122.91015625 187.5078125 C-130.48664462 181.21164522 -137.88624491 174.02873574 -142 165 C-142.38542969 164.20335937 -142.77085937 163.40671875 -143.16796875 162.5859375 C-143.50441406 161.85632813 -143.84085937 161.12671875 -144.1875 160.375 C-144.70376953 159.27285156 -144.70376953 159.27285156 -145.23046875 158.1484375 C-146 156 -146 156 -146 152 C-146.66 152 -147.32 152 -148 152 C-148.31927064 150.54313397 -148.62990834 149.08437649 -148.9375 147.625 C-149.19853516 146.40683594 -149.19853516 146.40683594 -149.46484375 145.1640625 C-153.74932636 119.83245001 -150.28700335 95.34256717 -143 71 C-142.34 71 -141.68 71 -141 71 C-140.86722656 70.38511719 -140.73445313 69.77023438 -140.59765625 69.13671875 C-140.33275391 67.92435547 -140.33275391 67.92435547 -140.0625 66.6875 C-139.88847656 65.88699219 -139.71445313 65.08648437 -139.53515625 64.26171875 C-139 62 -139 62 -138 59 C-137.34 59 -136.68 59 -136 59 C-135.84144531 58.443125 -135.68289062 57.88625 -135.51953125 57.3125 C-133.82046444 51.75533122 -131.73872443 46.528422 -128 42 C-127.34 42 -126.68 42 -126 42 C-125.74476563 41.27554688 -125.48953125 40.55109375 -125.2265625 39.8046875 C-121.99381038 32.41259826 -115.86487032 26.55004801 -109.74609375 21.45703125 C-107.87213578 19.9376723 -107.87213578 19.9376723 -105.8125 17.8125 C-95.99233629 7.99233629 -82.41470673 1.12620992 -69 -2 C-69 -2.33 -69 -2.66 -69 -3 C-46.6349502 -6.88465452 -21.57561087 -8.39579571 0 0 Z M12 133 C12.33 134.65 12.66 136.3 13 138 C14.32 137.34 15.64 136.68 17 136 C16.01 135.67 15.02 135.34 14 135 C14 134.34 14 133.68 14 133 C13.34 133 12.68 133 12 133 Z " fill="#568B74" transform="translate(266,174)"/>
<path d="M0 0 C0.96679688 0.43699219 1.93359375 0.87398437 2.9296875 1.32421875 C18.31709935 8.63419869 18.31709935 8.63419869 21 14 C22.485 14.495 22.485 14.495 24 15 C24.66666667 16.33333333 25.33333333 17.66666667 26 19 C27.64488294 20.68816933 29.31337542 22.35353315 31 24 C35 28.54054054 35 28.54054054 35 32 C36.485 32.495 36.485 32.495 38 33 C38 33.66 38 34.32 38 35 C38.45375 35.391875 38.9075 35.78375 39.375 36.1875 C41.71746601 38.80025055 42.11624727 41.64173963 43 45 C43.46019531 45.90105469 43.46019531 45.90105469 43.9296875 46.8203125 C45.30183846 49.61469292 46.15720496 52.46000872 47.0625 55.4375 C47.57490234 57.10619141 47.57490234 57.10619141 48.09765625 58.80859375 C52.50690375 74.40320503 52.58708353 91.81710033 44.78125 106.26171875 C41.31102155 111.59643398 37.00714987 116.56336491 31 119 C30.01 119 29.02 119 28 119 C28 119.66 28 120.32 28 121 C18.05466218 123.32542346 9.89952694 123.62115134 0 121 C0 120.34 0 119.68 0 119 C-0.8765625 118.90203125 -1.753125 118.8040625 -2.65625 118.703125 C-13.80930823 116.35785575 -22.96588604 106.40328456 -30 98 C-30.763125 97.113125 -31.52625 96.22625 -32.3125 95.3125 C-34.0367793 92.94959874 -35.05432252 90.758226 -36 88 C-36.66 88 -37.32 88 -38 88 C-45.15376106 73.93915929 -45.15376106 73.93915929 -46 67 C-46.66 67 -47.32 67 -48 67 C-51.79185188 49.97243874 -54.15219713 32.82119723 -48 16 C-47.34 16 -46.68 16 -46 16 C-45.835 15.175 -45.67 14.35 -45.5 13.5 C-43.42516704 8.65872309 -40.19949828 5.17043203 -36 2 C-33.23828125 1.26953125 -33.23828125 1.26953125 -31 1 C-31 0.34 -31 -0.32 -31 -1 C-20.83752254 -4.2786399 -9.80248798 -4.55969389 0 0 Z " fill="#558A73" transform="translate(113,61)"/>
<path d="M0 0 C1.41511134 0.8650595 2.81488344 1.75648344 4.1875 2.6875 C5.115625 3.1825 6.04375 3.6775 7 4.1875 C11.53009404 7.2938502 14.49700462 10.83164537 17.08203125 15.6640625 C18.85648327 18.91199941 20.85780025 22.02318719 22.8203125 25.16015625 C24.33066122 27.95214375 25.26209727 30.65233139 26.1875 33.6875 C26.52910156 34.77546875 26.87070312 35.8634375 27.22265625 36.984375 C32.85332106 55.91025975 33.57125881 76.99580878 26.83984375 95.75 C26.09068737 97.81274401 26.09068737 97.81274401 25.6875 100.5625 C25.08506565 103.12284601 24.052354 103.90034825 22.1875 105.6875 C21.47302357 107.79082891 21.47302357 107.79082891 21.1875 109.6875 C20.5275 109.6875 19.8675 109.6875 19.1875 109.6875 C18.91550781 110.26371094 18.64351563 110.83992188 18.36328125 111.43359375 C15.38918602 117.13476634 11.92547595 121.6591238 6.1875 124.6875 C5.1975 126.1725 5.1975 126.1725 4.1875 127.6875 C3.5275 127.6875 2.8675 127.6875 2.1875 127.6875 C0.91279545 128.1775466 -0.35734453 128.67949707 -1.625 129.1875 C-10.76367715 132.27290547 -21.03719721 131.66804972 -29.8125 127.6875 C-36.17582561 124.07775893 -40.88691124 118.82123244 -44.8125 112.6875 C-44.8125 112.0275 -44.8125 111.3675 -44.8125 110.6875 C-45.4725 110.6875 -46.1325 110.6875 -46.8125 110.6875 C-50.87173862 102.54678036 -54.41605887 94.84782184 -56.3046875 85.8828125 C-56.60006767 83.72341296 -56.60006767 83.72341296 -57.8125 82.6875 C-59.10135072 76.22509359 -58.96054407 69.75506026 -58.9375 63.1875 C-58.94136719 62.08535156 -58.94523438 60.98320313 -58.94921875 59.84765625 C-58.94064492 52.70565314 -58.84860625 46.0299881 -56.375 39.25 C-54.92190997 35.10441961 -53.82280418 30.96186383 -52.8125 26.6875 C-52.1525 26.6875 -51.4925 26.6875 -50.8125 26.6875 C-50.67714844 26.14222656 -50.54179687 25.59695312 -50.40234375 25.03515625 C-47.79416434 15.89871939 -41.82752277 7.9187503 -33.8125 2.6875 C-31.60546875 2.03125 -31.60546875 2.03125 -29.8125 1.6875 C-29.8125 1.0275 -29.8125 0.3675 -29.8125 -0.3125 C-20.92030037 -3.83822883 -8.66805402 -4.340564 0 0 Z " fill="#558A73" transform="translate(238.8125,23.3125)"/>
<path d="M0 0 C6.24228142 4.63587613 11.83709208 9.77192892 16.375 16.125 C16.375 16.785 16.375 17.445 16.375 18.125 C17.035 18.455 17.695 18.785 18.375 19.125 C26.95066239 34.26983967 25.99242797 47.78197721 22.375 64.125 C21.715 64.125 21.055 64.125 20.375 64.125 C20.08625 64.7025 19.7975 65.28 19.5 65.875 C18.125 68.625 16.75 71.375 15.375 74.125 C14.7975 74.24875 14.22 74.3725 13.625 74.5 C11.14995386 75.02770107 11.14995386 75.02770107 8.8125 77.1875 C6.375 79.125 6.375 79.125 3.375 79.125 C3.375 79.785 3.375 80.445 3.375 81.125 C-8.54225631 85.28218243 -22.6445333 85.1184889 -34.625 81.125 C-34.625 80.465 -34.625 79.805 -34.625 79.125 C-35.9553125 78.939375 -35.9553125 78.939375 -37.3125 78.75 C-42.11535531 77.84380089 -45.30930572 76.74212104 -48.625 73.125 C-50.11 72.135 -50.11 72.135 -51.625 71.125 C-51.625 70.465 -51.625 69.805 -51.625 69.125 C-52.21539062 68.85816406 -52.80578125 68.59132813 -53.4140625 68.31640625 C-62.98591164 63.15843101 -69.720554 51.16173411 -73.3125 41.22265625 C-76.44260663 29.89775655 -76.12406379 15.61187033 -70.59375 5.1796875 C-67.92453475 1.01354747 -64.53429607 -1.71603229 -60.4921875 -4.515625 C-58.59864161 -5.79688899 -58.59864161 -5.79688899 -57.20703125 -7.44140625 C-42.40724828 -20.85256761 -13.33701274 -9.36852662 0 0 Z " fill="#548973" transform="translate(88.625,195.875)"/>
<path d="M0 0 C4.26852483 0.3557104 7.99617245 1.78874907 12 3.25 C12.9075 3.53875 13.815 3.8275 14.75 4.125 C19.52119613 6.51059806 22.90020463 11.00213227 26 15.25 C26 15.91 26 16.57 26 17.25 C26.66 17.58 27.32 17.91 28 18.25 C31.20695131 24.34925834 32.73140787 30.41209206 33 37.25 C33.0515625 38.13042969 33.103125 39.01085937 33.15625 39.91796875 C33.64876902 55.12449345 29.73701709 70.15069384 22 83.25 C21.01 83.745 21.01 83.745 20 84.25 C19.27840576 85.89363134 18.60648579 87.56050386 18 89.25 C17.34 89.25 16.68 89.25 16 89.25 C15.34 91.23 14.68 93.21 14 95.25 C13.34 95.25 12.68 95.25 12 95.25 C11.67 95.91 11.34 96.57 11 97.25 C8.14346774 99.46885535 5.07449545 101.34940281 2 103.25 C1.23171875 103.7346875 0.4634375 104.219375 -0.328125 104.71875 C-8.22679761 109.21733175 -17.35050969 110.34205017 -26.3125 108.75 C-33.1496573 105.96878347 -38.79264992 101.32728345 -43 95.25 C-43.680625 94.404375 -44.36125 93.55875 -45.0625 92.6875 C-47.42617894 88.49387607 -48.35687883 84.4391481 -49.38671875 79.76171875 C-49.7512036 77.32572935 -49.7512036 77.32572935 -51 76.25 C-51.08669432 74.7612814 -51.10703494 73.268555 -51.09765625 71.77734375 C-51.09443359 70.87822266 -51.09121094 69.97910156 -51.08789062 69.05273438 C-51.07951172 68.10720703 -51.07113281 67.16167969 -51.0625 66.1875 C-51.05798828 65.23810547 -51.05347656 64.28871094 -51.04882812 63.31054688 C-51.0370011 60.95696935 -51.02052025 58.60351523 -51 56.25 C-50.34 56.25 -49.68 56.25 -49 56.25 C-48.95101563 55.53714844 -48.90203125 54.82429688 -48.8515625 54.08984375 C-48.41871477 48.54491509 -47.75971184 43.52913551 -46 38.25 C-45.34 38.25 -44.68 38.25 -44 38.25 C-43.87625 37.528125 -43.7525 36.80625 -43.625 36.0625 C-43.0095069 33.29278106 -42.11555626 30.8529646 -41 28.25 C-40.34 28.25 -39.68 28.25 -39 28.25 C-38.814375 27.59 -38.62875 26.93 -38.4375 26.25 C-34.99610357 19.06795527 -28.36502558 12.93231767 -22 8.25 C-21.34 8.25 -20.68 8.25 -20 8.25 C-20 7.59 -20 6.93 -20 6.25 C-14.29668391 3.7827707 -9.18444458 1.90791964 -3 1.25 C-2 0.25 -2 0.25 0 0 Z " fill="#548973" transform="translate(343,85.75)"/>
<path d="M0 0 C2.09375 0.41796875 2.09375 0.41796875 4 1 C4.07347656 2.12148437 4.07347656 2.12148437 4.1484375 3.265625 C4.22320312 4.25046875 4.29796875 5.2353125 4.375 6.25 C4.44460937 7.22453125 4.51421875 8.1990625 4.5859375 9.203125 C4.83130329 11.95105576 4.83130329 11.95105576 6.05078125 13.95703125 C7.40063321 16.86226818 7.00691674 19.26447207 6.8125 22.4375 C6.65789729 27.58965492 6.65789729 27.58965492 9.125 32 C10.07375 32.66 11.0225 33.32 12 34 C12.86625 34.78375 13.7325 35.5675 14.625 36.375 C17.39661837 38.66677747 20.37343079 40.49715731 23.4375 42.375 C33.8342008 48.95394211 40.11310845 57.08148739 43.16015625 69.22265625 C44.21895231 74.34707847 44.22444656 79.3492055 44.125 84.5625 C44.11597656 85.47580078 44.10695313 86.38910156 44.09765625 87.33007812 C44.07437253 89.55367319 44.0416771 91.77668677 44 94 C46.92931581 94.90995768 47.68590623 95.13461162 50.625 93.875 C53.41777925 91.67017428 53.93539251 90.3561393 55 87 C55.78799277 79.58058754 54.92600679 73.78833575 52 67 C51.60919203 65.01043215 51.25149128 63.01193023 51 61 C52.6875 60.1875 52.6875 60.1875 55 60 C57.75 62.25 57.75 62.25 60 65 C60 65.99 60 66.98 60 68 C60.66 68 61.32 68 62 68 C65.33114213 76.7442481 65.33114213 87.2557519 62 96 C61.34 96 60.68 96 60 96 C59.7525 96.928125 59.505 97.85625 59.25 98.8125 C57.91074151 102.22760915 57.14157515 103.24441389 54 105 C51.19218988 105.85017752 48.6650675 106.12994187 45.73803711 106.14526367 C44.90715073 106.15164352 44.07626434 106.15802338 43.22019958 106.16459656 C42.33155716 106.16570938 41.44291473 106.1668222 40.52734375 106.16796875 C39.60788467 106.17129715 38.6884256 106.17462555 37.74110413 106.17805481 C35.80030822 106.18311087 33.85950365 106.18546354 31.91870117 106.18530273 C28.94500531 106.18749447 25.97167739 106.20567845 22.99804688 106.22460938 C21.11198044 106.22754248 19.22591223 106.22952783 17.33984375 106.23046875 C16.44917709 106.23765427 15.55851044 106.24483978 14.64085388 106.25224304 C13.81311966 106.24916641 12.98538544 106.24608978 12.13256836 106.24291992 C11.40516953 106.24434494 10.67777069 106.24576996 9.92832947 106.24723816 C8 106 8 106 5 104 C5.33 102.35 5.66 100.7 6 99 C5.1028125 100.175625 5.1028125 100.175625 4.1875 101.375 C2 104 2 104 -1 106 C-4.5625 106.25 -4.5625 106.25 -8 106 C-8.66 105.34 -9.32 104.68 -10 104 C-9.875 102.0625 -9.875 102.0625 -9 100 C-7.99646484 99.43539062 -7.99646484 99.43539062 -6.97265625 98.859375 C-4.63198534 97.04106339 -4.63198534 97.04106339 -4.50390625 93.48046875 C-4.49717796 92.0493617 -4.51837 90.61794231 -4.5625 89.1875 C-4.57861328 88.42920898 -4.59472656 87.67091797 -4.61132812 86.88964844 C-5.07224641 73.47242945 -8.42144483 63.89316741 -16 53 C-18.25414782 49.61877827 -18.24544447 48.3935272 -18.1875 44.4375 C-18.18105469 43.46683594 -18.17460937 42.49617188 -18.16796875 41.49609375 C-18 39 -18 39 -17 37 C-16.46009707 33.24522054 -16.32697097 29.74140545 -17 26 C-18.62227964 24.00015655 -20.2660626 22.74390013 -22.375 21.28125 C-24 20 -24 20 -24.9375 17.125 C-24.958125 16.42375 -24.97875 15.7225 -25 15 C-23.68 14.67 -22.36 14.34 -21 14 C-20.95875 13.401875 -20.9175 12.80375 -20.875 12.1875 C-20 10 -20 10 -17 8.625 C-16.01 8.08875 -15.02 7.5525 -14 7 C-13.02525184 3.91038542 -13.02525184 3.91038542 -13 1 C-11.125 1.3125 -11.125 1.3125 -9 2 C-8.01 3.485 -8.01 3.485 -7 5 C-4.72707059 3.98110061 -3.16975439 3.19097369 -1.5 1.3125 C-1.005 0.879375 -0.51 0.44625 0 0 Z " fill="#F8F9F9" transform="translate(233,216)"/>
<path d="M0 0 C5.74983031 10.90227565 6.06990704 22.26766732 6.125 34.3125 C6.12975342 35.18503418 6.13450684 36.05756836 6.1394043 36.95654297 C6.12862019 41.09843837 6.04907384 44.96189833 5 49 C4.34 49 3.68 49 3 49 C3.00523682 48.21987549 3.01047363 47.43975098 3.01586914 46.63598633 C3.03693009 43.02816608 3.04975138 39.42035884 3.0625 35.8125 C3.07087891 34.58595703 3.07925781 33.35941406 3.08789062 32.09570312 C3.10921323 24.01443416 2.7501017 16.04646864 2 8 C1.34 8 0.68 8 0 8 C0 5.36 0 2.72 0 0 Z " fill="#15211B" transform="translate(264,57)"/>
<path d="M0 0 C4.01568074 3.85375813 3.5895825 8.4739313 3.75 13.6875 C3.79253906 14.54794922 3.83507812 15.40839844 3.87890625 16.29492188 C4.11019837 21.97871153 3.75392208 27.36271901 3 33 C2.34 33 1.68 33 1 33 C1.01740234 31.06060547 1.01740234 31.06060547 1.03515625 29.08203125 C1.09525302 19.32757399 0.99260606 9.71335927 0 0 Z " fill="#13201B" transform="translate(160,121)"/>
<path d="M0 0 C5.21107405 4.59737318 6.63367989 10.46386587 7.18359375 17.2734375 C7.18681152 18.85014316 7.10488112 20.42678322 7 22 C4.35869909 19.35869909 4.17598812 17.19121892 3.375 13.5625 C3.11460937 12.40878906 2.85421875 11.25507813 2.5859375 10.06640625 C2 7 2 7 2 4 C1.34 4 0.68 4 0 4 C0 2.68 0 1.36 0 0 Z " fill="#0F2215" transform="translate(353,254)"/>
<path d="M0 0 C0.33 0 0.66 0 1 0 C1.33 2.31 1.66 4.62 2 7 C2.66 7 3.32 7 4 7 C4 9.31 4 11.62 4 14 C3.01 14.33 2.02 14.66 1 15 C0.67 10.05 0.34 5.1 0 0 Z " fill="#426F5D" transform="translate(357,269)"/>
<path d="M0 0 C3.13107836 3.38583802 3.33550778 5.71109462 3.1875 10.25 C3.16042969 11.32765625 3.13335937 12.4053125 3.10546875 13.515625 C3.07066406 14.33546875 3.03585938 15.1553125 3 16 C0.65229357 12.47844036 0.62330386 10.49228157 0.375 6.3125 C0.30023438 5.13300781 0.22546875 3.95351562 0.1484375 2.73828125 C0.09945312 1.83464844 0.05046875 0.93101563 0 0 Z " fill="#0C130F" transform="translate(160,121)"/>
<path d="M0 0 C5.06232884 -0.48990279 9.32630846 1.2893678 14 3 C10.73086376 4.03115279 8.13958652 3.9638984 4.75 3.5625 C3.85796875 3.46066406 2.9659375 3.35882813 2.046875 3.25390625 C1.37140625 3.17011719 0.6959375 3.08632812 0 3 C0 2.01 0 1.02 0 0 Z " fill="#345445" transform="translate(341,86)"/>
<path d="M0 0 C0.33 0 0.66 0 1 0 C1.33 6.6 1.66 13.2 2 20 C1.01 20 0.02 20 -1 20 C-0.67 13.4 -0.34 6.8 0 0 Z " fill="#58766A" transform="translate(277,290)"/>
<path d="M0 0 C0 3 0 3 -1 6 C-1.66 6 -2.32 6 -3 6 C-3.33 6.66 -3.66 7.32 -4 8 C-5.64363134 8.72159424 -7.31050386 9.39351421 -9 10 C-8.06409496 8.8944811 -7.12620142 7.79064547 -6.1875 6.6875 C-5.66542969 6.07261719 -5.14335937 5.45773438 -4.60546875 4.82421875 C-3.12827531 3.14575321 -1.59960869 1.56117966 0 0 Z " fill="#111C18" transform="translate(358,175)"/>
<path d="M0 0 C2.62370236 3.00245204 3.36302348 4.77146788 3.1875 8.75 C3.16042969 9.54921875 3.13335937 10.3484375 3.10546875 11.171875 C3.07066406 11.77515625 3.03585937 12.3784375 3 13 C0.41073669 10.41073669 0.62601957 8.97294721 0.375 5.375 C0.30023438 4.37210937 0.22546875 3.36921875 0.1484375 2.3359375 C0.09945313 1.56507812 0.05046875 0.79421875 0 0 Z " fill="#0E1712" transform="translate(372,109)"/>
<path d="M0 0 C0 3 0 3 -1 6 C-1.66 6 -2.32 6 -3 6 C-3.33 6.66 -3.66 7.32 -4 8 C-6.0625 8.625 -6.0625 8.625 -8 9 C-7.04270084 7.87411986 -6.08412105 6.7493285 -5.125 5.625 C-4.59132812 4.99851562 -4.05765625 4.37203125 -3.5078125 3.7265625 C-2.38567993 2.44163349 -1.20628025 1.20628025 0 0 Z " fill="#101A16" transform="translate(205,355)"/>
<path d="M0 0 C3.85233752 3.2739705 3.60102096 6.13245571 4 11 C1.6870518 8.6870518 1.50419025 7.52095125 0.875 4.375 C0.70742187 3.55773437 0.53984375 2.74046875 0.3671875 1.8984375 C0.24601563 1.27195312 0.12484375 0.64546875 0 0 Z " fill="#0C1511" transform="translate(155,106)"/>
<path d="M0 0 C3.25543229 0.34879632 4.01873107 1.02133261 6.25 3.5625 C6.8275 4.366875 7.405 5.17125 8 6 C2.33846154 4.52307692 2.33846154 4.52307692 0.625 1.875 C0.41875 1.25625 0.2125 0.6375 0 0 Z " fill="#2E4D3E" transform="translate(298,191)"/>
<path d="M0 0 C0.99 0.495 0.99 0.495 2 1 C1.67 1.66 1.34 2.32 1 3 C0.67 2.01 0.34 1.02 0 0 Z " fill="#000000" transform="translate(29,260)"/>
<path d="" fill="#000000" transform="translate(0,0)"/>
<path d="M0 0 C2 1 2 1 2 1 Z " fill="#000000" transform="translate(32,264)"/>
<path d="" fill="#000000" transform="translate(0,0)"/>
<path d="" fill="#000000" transform="translate(0,0)"/>
<path d="" fill="#000000" transform="translate(0,0)"/>
<path d="" fill="#000000" transform="translate(0,0)"/>
<path d="" fill="#000000" transform="translate(0,0)"/>
<path d="" fill="#000000" transform="translate(0,0)"/>
<path d="" fill="#000000" transform="translate(0,0)"/>
<path d="" fill="#000000" transform="translate(0,0)"/>
<path d="" fill="#000000" transform="translate(0,0)"/>
<path d="" fill="#000000" transform="translate(0,0)"/>
<path d="" fill="#000000" transform="translate(0,0)"/>
<path d="" fill="#000000" transform="translate(0,0)"/>
<path d="" fill="#000000" transform="translate(0,0)"/>
<path d="" fill="#000000" transform="translate(0,0)"/>
<path d="" fill="#000000" transform="translate(0,0)"/>
<path d="" fill="#000000" transform="translate(0,0)"/>
<path d="" fill="#000000" transform="translate(0,0)"/>
<path d="" fill="#000000" transform="translate(0,0)"/>
<path d="" fill="#000000" transform="translate(0,0)"/>
<path d="" fill="#000000" transform="translate(0,0)"/>
<path d="" fill="#000000" transform="translate(0,0)"/>
<path d="" fill="#000000" transform="translate(0,0)"/>
<path d="" fill="#000000" transform="translate(0,0)"/>
<path d="" fill="#000000" transform="translate(0,0)"/>
<path d="" fill="#000000" transform="translate(0,0)"/>
<path d="" fill="#000000" transform="translate(0,0)"/>
<path d="" fill="#000000" transform="translate(0,0)"/>
<path d="" fill="#000000" transform="translate(0,0)"/>
<path d="" fill="#000000" transform="translate(0,0)"/>
<path d="" fill="#000000" transform="translate(0,0)"/>
<path d="" fill="#000000" transform="translate(0,0)"/>
<path d="" fill="#000000" transform="translate(0,0)"/>
<path d="" fill="#000000" transform="translate(0,0)"/>
<path d="" fill="#000000" transform="translate(0,0)"/>
<path d="" fill="#000000" transform="translate(0,0)"/>
<path d="" fill="#000000" transform="translate(0,0)"/>
<path d="" fill="#000000" transform="translate(0,0)"/>
<path d="" fill="#000000" transform="translate(0,0)"/>
<path d="" fill="#000000" transform="translate(0,0)"/>
<path d="" fill="#000000" transform="translate(0,0)"/>
<path d="" fill="#000000" transform="translate(0,0)"/>
<path d="" fill="#000000" transform="translate(0,0)"/>
<path d="" fill="#000000" transform="translate(0,0)"/>
<path d="" fill="#000000" transform="translate(0,0)"/>
<path d="" fill="#000000" transform="translate(0,0)"/>
<path d="" fill="#000000" transform="translate(0,0)"/>
<path d="" fill="#000000" transform="translate(0,0)"/>
<path d="" fill="#000000" transform="translate(0,0)"/>
<path d="" fill="#000000" transform="translate(0,0)"/>
<path d="" fill="#000000" transform="translate(0,0)"/>
<path d="" fill="#000000" transform="translate(0,0)"/>
<path d="" fill="#000000" transform="translate(0,0)"/>
<path d="" fill="#000000" transform="translate(0,0)"/>
<path d="" fill="#000000" transform="translate(0,0)"/>
<path d="" fill="#000000" transform="translate(0,0)"/>
<path d="" fill="#000000" transform="translate(0,0)"/>
<path d="" fill="#000000" transform="translate(0,0)"/>
<path d="" fill="#000000" transform="translate(0,0)"/>
<path d="" fill="#000000" transform="translate(0,0)"/>
<path d="" fill="#000000" transform="translate(0,0)"/>
<path d="" fill="#000000" transform="translate(0,0)"/>
<path d="" fill="#000000" transform="translate(0,0)"/>
<path d="" fill="#000000" transform="translate(0,0)"/>
<path d="" fill="#000000" transform="translate(0,0)"/>
<path d="" fill="#000000" transform="translate(0,0)"/>
<path d="" fill="#000000" transform="translate(0,0)"/>
<path d="" fill="#000000" transform="translate(0,0)"/>
<path d="" fill="#000000" transform="translate(0,0)"/>
<path d="" fill="#000000" transform="translate(0,0)"/>
<path d="" fill="#000000" transform="translate(0,0)"/>
<path d="" fill="#000000" transform="translate(0,0)"/>
<path d="" fill="#000000" transform="translate(0,0)"/>
<path d="" fill="#000000" transform="translate(0,0)"/>
<path d="" fill="#000000" transform="translate(0,0)"/>
<path d="" fill="#000000" transform="translate(0,0)"/>
<path d="" fill="#000000" transform="translate(0,0)"/>
<path d="" fill="#000000" transform="translate(0,0)"/>
<path d="" fill="#000000" transform="translate(0,0)"/>
<path d="" fill="#000000" transform="translate(0,0)"/>
<path d="" fill="#000000" transform="translate(0,0)"/>
<path d="" fill="#000000" transform="translate(0,0)"/>
<path d="" fill="#000000" transform="translate(0,0)"/>
<path d="" fill="#000000" transform="translate(0,0)"/>
<path d="" fill="#000000" transform="translate(0,0)"/>
<path d="" fill="#000000" transform="translate(0,0)"/>
<path d="" fill="#000000" transform="translate(0,0)"/>
<path d="" fill="#000000" transform="translate(0,0)"/>
<path d="" fill="#000000" transform="translate(0,0)"/>
<path d="" fill="#000000" transform="translate(0,0)"/>
<path d="" fill="#000000" transform="translate(0,0)"/>
<path d="" fill="#000000" transform="translate(0,0)"/>
<path d="" fill="#000000" transform="translate(0,0)"/>
<path d="" fill="#000000" transform="translate(0,0)"/>
<path d="" fill="#000000" transform="translate(0,0)"/>
<path d="" fill="#000000" transform="translate(0,0)"/>
<path d="" fill="#000000" transform="translate(0,0)"/>
<path d="" fill="#000000" transform="translate(0,0)"/>
<path d="" fill="#000000" transform="translate(0,0)"/>
<path d="" fill="#000000" transform="translate(0,0)"/>
<path d="" fill="#000000" transform="translate(0,0)"/>
<path d="" fill="#000000" transform="translate(0,0)"/>
<path d="" fill="#000000" transform="translate(0,0)"/>
<path d="" fill="#000000" transform="translate(0,0)"/>
<path d="" fill="#000000" transform="translate(0,0)"/>
<path d="" fill="#000000" transform="translate(0,0)"/>
<path d="" fill="#000000" transform="translate(0,0)"/>
<path d="" fill="#000000" transform="translate(0,0)"/>
<path d="" fill="#000000" transform="translate(0,0)"/>
<path d="" fill="#000000" transform="translate(0,0)"/>
<path d="" fill="#000000" transform="translate(0,0)"/>
<path d="" fill="#000000" transform="translate(0,0)"/>
<path d="" fill="#000000" transform="translate(0,0)"/>
<path d="" fill="#000000" transform="translate(0,0)"/>
<path d="" fill="#000000" transform="translate(0,0)"/>
<path d="" fill="#000000" transform="translate(0,0)"/>
<path d="" fill="#000000" transform="translate(0,0)"/>
<path d="" fill="#000000" transform="translate(0,0)"/>
<path d="" fill="#000000" transform="translate(0,0)"/>
<path d="" fill="#000000" transform="translate(0,0)"/>
<path d="" fill="#000000" transform="translate(0,0)"/>
<path d="" fill="#000000" transform="translate(0,0)"/>
<path d="" fill="#000000" transform="translate(0,0)"/>
<path d="" fill="#000000" transform="translate(0,0)"/>
<path d="" fill="#000000" transform="translate(0,0)"/>
<path d="" fill="#000000" transform="translate(0,0)"/>
<path d="" fill="#000000" transform="translate(0,0)"/>
<path d="" fill="#000000" transform="translate(0,0)"/>
<path d="" fill="#000000" transform="translate(0,0)"/>
<path d="" fill="#000000" transform="translate(0,0)"/>
<path d="" fill="#000000" transform="translate(0,0)"/>
<path d="" fill="#000000" transform="translate(0,0)"/>
<path d="" fill="#000000" transform="translate(0,0)"/>
<path d="" fill="#000000" transform="translate(0,0)"/>
<path d="" fill="#000000" transform="translate(0,0)"/>
<path d="" fill="#000000" transform="translate(0,0)"/>
<path d="" fill="#000000" transform="translate(0,0)"/>
<path d="" fill="#000000" transform="translate(0,0)"/>
<path d="" fill="#000000" transform="translate(0,0)"/>
<path d="" fill="#000000" transform="translate(0,0)"/>
<path d="" fill="#000000" transform="translate(0,0)"/>
<path d="" fill="#000000" transform="translate(0,0)"/>
<path d="" fill="#000000" transform="translate(0,0)"/>
<path d="" fill="#000000" transform="translate(0,0)"/>
<path d="" fill="#000000" transform="translate(0,0)"/>
<path d="" fill="#000000" transform="translate(0,0)"/>
<path d="" fill="#000000" transform="translate(0,0)"/>
<path d="" fill="#000000" transform="translate(0,0)"/>
<path d="" fill="#000000" transform="translate(0,0)"/>
<path d="" fill="#000000" transform="translate(0,0)"/>
<path d="" fill="#000000" transform="translate(0,0)"/>
<path d="" fill="#000000" transform="translate(0,0)"/>
<path d="" fill="#000000" transform="translate(0,0)"/>
<path d="" fill="#000000" transform="translate(0,0)"/>
<path d="" fill="#000000" transform="translate(0,0)"/>
<path d="" fill="#000000" transform="translate(0,0)"/>
<path d="" fill="#000000" transform="translate(0,0)"/>
<path d="" fill="#000000" transform="translate(0,0)"/>
<path d="" fill="#000000" transform="translate(0,0)"/>
<path d="" fill="#000000" transform="translate(0,0)"/>
<path d="" fill="#000000" transform="translate(0,0)"/>
<path d="" fill="#000000" transform="translate(0,0)"/>
<path d="" fill="#000000" transform="translate(0,0)"/>
<path d="" fill="#000000" transform="translate(0,0)"/>
<path d="" fill="#000000" transform="translate(0,0)"/>
<path d="" fill="#000000" transform="translate(0,0)"/>
<path d="" fill="#000000" transform="translate(0,0)"/>
<path d="" fill="#000000" transform="translate(0,0)"/>
<path d="" fill="#000000" transform="translate(0,0)"/>
<path d="" fill="#000000" transform="translate(0,0)"/>
<path d="" fill="#000000" transform="translate(0,0)"/>
<path d="" fill="#000000" transform="translate(0,0)"/>
<path d="" fill="#000000" transform="translate(0,0)"/>
<path d="" fill="#000000" transform="translate(0,0)"/>
<path d="" fill="#000000" transform="translate(0,0)"/>
<path d="" fill="#000000" transform="translate(0,0)"/>
<path d="" fill="#000000" transform="translate(0,0)"/>
<path d="" fill="#000000" transform="translate(0,0)"/>
<path d="" fill="#000000" transform="translate(0,0)"/>
<path d="" fill="#000000" transform="translate(0,0)"/>
<path d="" fill="#000000" transform="translate(0,0)"/>
<path d="" fill="#000000" transform="translate(0,0)"/>
<path d="" fill="#000000" transform="translate(0,0)"/>
<path d="" fill="#000000" transform="translate(0,0)"/>
<path d="" fill="#000000" transform="translate(0,0)"/>
<path d="" fill="#000000" transform="translate(0,0)"/>
<path d="" fill="#000000" transform="translate(0,0)"/>
<path d="" fill="#000000" transform="translate(0,0)"/>
<path d="" fill="#000000" transform="translate(0,0)"/>
<path d="" fill="#000000" transform="translate(0,0)"/>
<path d="" fill="#000000" transform="translate(0,0)"/>
<path d="" fill="#000000" transform="translate(0,0)"/>
<path d="" fill="#000000" transform="translate(0,0)"/>
<path d="" fill="#000000" transform="translate(0,0)"/>
<path d="" fill="#000000" transform="translate(0,0)"/>
<path d="" fill="#000000" transform="translate(0,0)"/>
<path d="" fill="#000000" transform="translate(0,0)"/>
<path d="" fill="#000000" transform="translate(0,0)"/>
<path d="" fill="#000000" transform="translate(0,0)"/>
<path d="" fill="#000000" transform="translate(0,0)"/>
<path d="" fill="#000000" transform="translate(0,0)"/>
<path d="" fill="#000000" transform="translate(0,0)"/>
<path d="" fill="#000000" transform="translate(0,0)"/>
<path d="" fill="#000000" transform="translate(0,0)"/>
<path d="" fill="#000000" transform="translate(0,0)"/>
<path d="" fill="#000000" transform="translate(0,0)"/>
<path d="" fill="#000000" transform="translate(0,0)"/>
<path d="" fill="#000000" transform="translate(0,0)"/>
<path d="" fill="#000000" transform="translate(0,0)"/>
<path d="" fill="#000000" transform="translate(0,0)"/>
<path d="" fill="#000000" transform="translate(0,0)"/>
<path d="" fill="#000000" transform="translate(0,0)"/>
<path d="" fill="#000000" transform="translate(0,0)"/>
<path d="" fill="#000000" transform="translate(0,0)"/>
<path d="" fill="#000000" transform="translate(0,0)"/>
<path d="" fill="#000000" transform="translate(0,0)"/>
<path d="" fill="#000000" transform="translate(0,0)"/>
<path d="" fill="#000000" transform="translate(0,0)"/>
<path d="" fill="#000000" transform="translate(0,0)"/>
<path d="" fill="#000000" transform="translate(0,0)"/>
<path d="" fill="#000000" transform="translate(0,0)"/>
<path d="" fill="#000000" transform="translate(0,0)"/>
<path d="" fill="#000000" transform="translate(0,0)"/>
<path d="" fill="#000000" transform="translate(0,0)"/>
<path d="" fill="#000000" transform="translate(0,0)"/>
<path d="" fill="#000000" transform="translate(0,0)"/>
<path d="" fill="#000000" transform="translate(0,0)"/>
<path d="" fill="#000000" transform="translate(0,0)"/>
<path d="" fill="#000000" transform="translate(0,0)"/>
<path d="" fill="#000000" transform="translate(0,0)"/>
<path d="" fill="#000000" transform="translate(0,0)"/>
<path d="" fill="#000000" transform="translate(0,0)"/>
<path d="" fill="#000000" transform="translate(0,0)"/>
<path d="" fill="#000000" transform="translate(0,0)"/>
<path d="" fill="#000000" transform="translate(0,0)"/>
<path d="" fill="#000000" transform="translate(0,0)"/>
<path d="" fill="#000000" transform="translate(0,0)"/>
<path d="" fill="#000000" transform="translate(0,0)"/>
<path d="" fill="#000000" transform="translate(0,0)"/>
<path d="" fill="#000000" transform="translate(0,0)"/>
<path d="" fill="#000000" transform="translate(0,0)"/>
<path d="" fill="#000000" transform="translate(0,0)"/>
<path d="" fill="#000000" transform="translate(0,0)"/>
<path d="" fill="#000000" transform="translate(0,0)"/>
<path d="" fill="#000000" transform="translate(0,0)"/>
<path d="" fill="#000000" transform="translate(0,0)"/>
<path d="" fill="#000000" transform="translate(0,0)"/>
<path d="" fill="#000000" transform="translate(0,0)"/>
<path d="" fill="#000000" transform="translate(0,0)"/>
<path d="" fill="#000000" transform="translate(0,0)"/>
<path d="" fill="#000000" transform="translate(0,0)"/>
<path d="" fill="#000000" transform="translate(0,0)"/>
<path d="" fill="#000000" transform="translate(0,0)"/>
<path d="" fill="#000000" transform="translate(0,0)"/>
<path d="" fill="#000000" transform="translate(0,0)"/>
<path d="" fill="#000000" transform="translate(0,0)"/>
<path d="" fill="#000000" transform="translate(0,0)"/>
<path d="" fill="#000000" transform="translate(0,0)"/>
<path d="" fill="#000000" transform="translate(0,0)"/>
</svg>
